<?xml version="1.0" encoding="utf-8"?>
<!-- Generator: Adobe Illustrator 27.0.0, SVG Export Plug-In . SVG Version: 6.00 Build 0)  -->
<svg version="1.1" id="Layer_1" xmlns="http://www.w3.org/2000/svg" xmlns:xlink="http://www.w3.org/1999/xlink" x="0px" y="0px"
	 viewBox="0 0 464.72 62.13" style="enable-background:new 0 0 464.72 62.13;" xml:space="preserve">
<g>
	<g>
		<path d="M30.49,22.96c-4.63-1.09-7.52-1.92-8.67-2.5c-1.15-0.57-1.82-1.69-2.03-3.36c0-1.72,0.83-3.11,2.5-4.18
			c1.67-1.07,3.87-1.6,6.64-1.6c2.97,0,5.54,0.44,7.73,1.33c2.13,0.84,4.79,2.61,7.96,5.31l7.5-8.82c-3.7-3.23-7.29-5.49-10.78-6.79
			c-3.49-1.35-7.55-2.03-12.18-2.03c-6.3-0.1-11.53,1.59-15.7,5.08c-4.16,3.49-6.2,7.6-6.09,12.34c0,4.32,1.36,7.67,4.1,10.03
			c0.63,0.55,1.39,1.08,2.27,1.6h34.16c-2.92-2.1-8-4.05-15.22-5.86L30.49,22.96z"/>
		<path d="M59.86,1.65v27.72h12.65V1.65H59.86z M92.97,1.65v27.72h12.65V1.65H92.97z"/>
		<path d="M160.13,16.01c0-4.53-1.59-8.05-4.76-10.54c-3.18-2.55-7.24-3.83-12.18-3.83h-27.25v27.72h39.19
			c-1.05-0.56-2.22-1.03-3.51-1.41C157.29,26.04,160.13,22.05,160.13,16.01z M145.8,21.75c-1.38,1.12-3.32,1.68-5.82,1.68H128.5
			V11.25h11.56c5.21,0,7.81,1.95,7.81,5.86C147.87,19.09,147.18,20.63,145.8,21.75z"/>
		<path d="M206.75,2.27c-3.28-1.35-7.06-2.03-11.32-2.03c-8.54-0.1-15.41,2.62-20.61,8.16c-5.21,5.55-7.76,12.46-7.65,20.73v0.23
			h12.88v-0.08c0-5.47,1.38-9.81,4.14-13.04c2.76-3.23,6.48-4.84,11.16-4.84c2.39,0,4.63,0.44,6.72,1.33
			c2.03,0.89,4.4,2.48,7.11,4.76l7.42-8.75C213.15,5.73,209.87,3.57,206.75,2.27z"/>
		<path d="M223.93,1.65v27.72h12.65V1.65H223.93z"/>
		<path d="M247.43,1.65v27.72h12.65V1.65H247.43z M280.55,1.65v27.72h12.65V1.65H280.55z"/>
		<path d="M345.28,9.3c-4.64-5.1-10.86-7.65-18.67-7.65H303.5v27.72h12.57v-17.1h8.67c4.42,0,7.92,1.44,10.5,4.33
			c2.58,2.89,3.87,7.15,3.87,12.77h13.12C352.23,21.09,349.92,14.4,345.28,9.3z"/>
		<path d="M390.03,1.65H373.4l-9.84,27.72h12.22c2.47-7.25,4.36-13.29,5.66-18.12c1.09,3.64,1.92,6.32,2.5,8.04l2.11,6.09l1.35,3.98
			h12.51L390.03,1.65z"/>
		<path d="M464.29,29.37c0-8.28-2.32-14.97-6.95-20.07s-10.85-7.65-18.66-7.65h-23.12v27.72h12.58v-17.1h8.67
			c4.42,0,7.92,1.44,10.5,4.33c2.57,2.89,3.87,7.15,3.87,12.77H464.29z"/>
	</g>
	<g>
		<path d="M43.5,33c-0.1-0.08-0.2-0.16-0.32-0.23H9.02c2.94,1.74,7.27,3.36,13,4.84c1.41,0.36,2.73,0.68,3.99,0.94
			c3.8,0.94,6.28,1.73,7.45,2.38c1.18,0.65,1.86,1.84,2.07,3.55c0,1.98-0.91,3.53-2.73,4.65c-1.83,1.12-4.22,1.68-7.19,1.68
			c-3.44,0-6.38-0.57-8.82-1.72c-2.39-1.09-5.44-3.31-9.14-6.64L0,51.35c4.22,3.86,8.23,6.59,12.03,8.2
			c3.85,1.56,8.3,2.34,13.35,2.34c6.92,0,12.43-1.71,16.51-5.15c4.09-3.44,6.13-7.89,6.13-13.35C47.87,38.65,46.36,35.19,43.5,33z"
			/>
		<path d="M88.25,32.77v8.12c0,3.13-0.86,5.54-2.58,7.23c-1.72,1.69-4.27,2.54-7.65,2.54c-6.82,0-10.23-3.25-10.23-9.77v-8.12H55.13
			v8.51c0,13.74,7.63,20.61,22.88,20.61c15.25,0,22.88-6.87,22.88-20.61v-8.51H88.25z"/>
		<path d="M154.66,36.28c-1.12-1.42-2.54-2.59-4.27-3.51H111.2v27.72h28.89c5.31,0,9.51-1.39,12.61-4.18
			c3.1-2.79,4.65-6.6,4.65-11.44C157.35,41.43,156.46,38.57,154.66,36.28z M135.41,50.88h-11.63V36.59h11.63
			c3.02,0,5.32,0.62,6.91,1.87c1.58,1.25,2.38,3.02,2.38,5.31C144.7,48.51,141.61,50.88,135.41,50.88z"/>
		<path d="M205.38,44.09c-3.07,2.45-5.68,4.19-7.81,5.23c-2.03,0.94-4.38,1.41-7.03,1.41c-4.58,0-8.26-1.64-11.05-4.92
			c-2.77-3.26-4.17-7.61-4.18-13.04h-12.88c-0.06,8.43,2.51,15.41,7.69,20.93c5.23,5.57,12.09,8.3,20.57,8.2
			c4.22,0,8.07-0.74,11.56-2.22c3.49-1.49,6.95-3.81,10.38-6.99L205.38,44.09z"/>
		<path d="M219.2,32.77v27.72h12.65V32.77H219.2z"/>
		<path d="M275.82,32.77v8.12c0,3.13-0.86,5.54-2.58,7.23c-1.72,1.69-4.27,2.54-7.65,2.54c-6.82,0-10.23-3.25-10.23-9.77v-8.12
			h-12.65v8.51c0,13.74,7.62,20.61,22.88,20.61c15.25,0,22.88-6.87,22.88-20.61v-8.51H275.82z"/>
		<path d="M334.39,32.77c0,5.62-1.29,9.88-3.87,12.77c-2.58,2.89-6.08,4.34-10.5,4.34h-8.67v-17.1h-12.57v27.72h23.11
			c7.81,0,14.03-2.55,18.67-7.65c4.63-5.1,6.95-11.79,6.95-20.07H334.39z"/>
		<path d="M395.18,32.77h-12.51l0.45,1.33l2.11,6.25h-16.71l1.95-5.86c0.2-0.58,0.39-1.16,0.59-1.72h-12.22l-9.84,27.72h12.65
			l3.28-9.68h23.74l3.2,9.68h13.19L395.18,32.77z"/>
		<path d="M459.57,32.77c0,8.27-2.32,14.97-6.95,20.07s-10.85,7.65-18.66,7.65h-23.12V32.77h12.58v17.1h8.67
			c4.42,0,7.92-1.45,10.5-4.34c2.57-2.89,3.87-7.14,3.87-12.77H459.57z"/>
	</g>
</g>
</svg>
